<svg width="563" height="349" viewBox="0 0 563 349" fill="none" xmlns="http://www.w3.org/2000/svg">
<path d="M136.111 213.703C133.785 215.402 130.14 217.487 125.176 219.958C120.212 222.429 114.318 224.591 107.493 226.444C100.823 228.143 93.3779 228.915 85.1569 228.761C71.9723 228.606 60.1062 226.29 49.5585 221.811C39.0108 217.178 30.0919 211 22.8016 203.278C15.5113 195.402 9.84966 186.445 5.81673 176.406C1.93891 166.213 0 155.403 0 143.974C0 131.156 2.01646 119.419 6.04939 108.763C10.0823 98.1064 15.8215 88.9173 23.2669 81.1955C30.7123 73.3191 39.5537 67.2188 49.7912 62.8946C60.0286 58.5703 71.1967 56.4082 83.2955 56.4082C93.9983 56.4082 103.538 57.8754 111.914 60.8097C120.445 63.5896 127.58 66.7555 133.319 70.3076L122.617 95.7898C118.273 92.7011 112.844 89.6895 106.33 86.7552C99.815 83.8209 92.4472 82.3537 84.2262 82.3537C76.7808 82.3537 69.6456 83.8981 62.8206 86.9869C55.9957 89.9212 50.0238 94.1682 44.9051 99.728C39.7864 105.133 35.6759 111.465 32.5737 118.724C29.6265 125.982 28.153 133.859 28.153 142.353C28.153 151.156 29.4714 159.264 32.1083 166.677C34.9004 173.935 38.7782 180.267 43.7418 185.673C48.8605 191.078 54.9099 195.325 61.89 198.414C69.0252 201.348 76.9359 202.815 85.6222 202.815C94.4636 202.815 102.142 201.502 108.656 198.877C115.326 196.097 120.678 193.008 124.711 189.611L136.111 213.703Z" fill="white"/>
<path d="M167.129 58.2615H280.439V84.207H236.697V226.907H209.708V84.207H167.129V58.2615Z" fill="white"/>
<path fill-rule="evenodd" clip-rule="evenodd" d="M398.931 81.3003C395.152 73.553 398.369 64.2094 406.117 60.4308C413.864 56.6522 423.208 59.8695 426.986 67.6167L480.105 176.527L533.224 67.6167C537.002 59.8695 546.346 56.6522 554.093 60.4308C561.841 64.2094 565.058 73.553 561.279 81.3003L494.134 218.967C492.294 222.74 489.134 225.439 485.481 226.778C483.687 227.439 481.833 227.749 480.004 227.736C478.289 227.726 476.556 227.432 474.872 226.83C471.159 225.509 467.94 222.79 466.075 218.967L398.931 81.3003Z" fill="#F10000"/>
<path d="M465.805 60.416C473.553 64.1946 476.77 73.5382 472.991 81.2855L433.559 162.133C429.78 169.881 420.437 173.098 412.69 169.319C404.942 165.541 401.725 156.197 405.504 148.45L444.936 67.602C448.714 59.8547 458.058 56.6374 465.805 60.416Z" fill="#27E7D6"/>
<path fill-rule="evenodd" clip-rule="evenodd" d="M427.004 81.3004C430.783 73.5531 427.566 64.2095 419.818 60.4309C412.071 56.6523 402.728 59.8696 398.949 67.6169L345.827 176.533L264.003 8.769C260.225 1.02171 250.881 -2.19554 243.134 1.58305C235.387 5.36165 232.169 14.7052 235.948 22.4525L331.794 218.966C333.749 222.975 337.195 225.771 341.138 227.012C343.652 227.809 346.26 227.932 348.738 227.461C353.408 226.572 357.615 223.569 359.86 218.967L427.004 81.3004Z" fill="#27E7D6"/>
<path d="M60.3639 269.378C56.797 267.593 53.0014 266.075 48.9771 264.826C44.9528 263.487 41.1115 262.817 37.4531 262.817C32.5142 262.817 28.5814 263.888 25.6547 266.031C22.8194 268.173 21.4018 271.119 21.4018 274.868C21.4018 277.546 22.4078 279.911 24.42 281.964C26.4321 283.928 28.993 285.669 32.1026 287.186C35.2123 288.615 38.5049 289.998 41.9804 291.337C44.9986 292.408 47.971 293.703 50.8978 295.22C53.916 296.648 56.614 298.434 58.992 300.576C61.37 302.718 63.2449 305.396 64.6168 308.61C66.0802 311.734 66.8119 315.617 66.8119 320.259C66.8119 325.347 65.4857 330.033 62.8334 334.318C60.181 338.513 56.3854 341.861 51.4465 344.36C46.5077 346.86 40.4713 348.109 33.3374 348.109C29.2216 348.109 25.1516 347.663 21.1274 346.77C17.1946 345.878 13.4447 344.673 9.87773 343.155C6.31077 341.548 3.0182 339.763 0 337.799L7.13392 325.615C9.32897 327.221 11.8441 328.694 14.6794 330.033C17.5147 331.372 20.4414 332.443 23.4596 333.247C26.4778 333.961 29.3131 334.318 31.9654 334.318C34.8007 334.318 37.5903 333.872 40.3341 332.979C43.1694 332.086 45.5016 330.613 47.3308 328.56C49.2515 326.507 50.2118 323.785 50.2118 320.393C50.2118 317.626 49.3887 315.26 47.7424 313.296C46.0961 311.332 43.9468 309.636 41.2944 308.208C38.7335 306.691 35.8982 305.352 32.7886 304.191C29.6789 303.031 26.4778 301.736 23.1852 300.308C19.9841 298.88 17.0117 297.139 14.2678 295.086C11.524 292.944 9.28324 290.355 7.54549 287.32C5.80774 284.285 4.93887 280.536 4.93887 276.073C4.93887 270.717 6.21931 266.075 8.78021 262.148C11.3411 258.22 14.8623 255.096 19.3439 252.775C23.9169 250.454 29.1759 249.204 35.1208 249.026C42.1633 249.026 48.1539 249.874 53.0928 251.57C58.1231 253.177 62.559 255.14 66.4003 257.461L60.3639 269.378Z" fill="white"/>
<path d="M104.955 311.957C104.955 315.796 105.961 319.322 107.973 322.535C110.077 325.659 112.821 328.203 116.205 330.167C119.589 332.042 123.384 332.979 127.592 332.979C131.982 332.979 135.915 332.042 139.39 330.167C142.866 328.203 145.609 325.659 147.622 322.535C149.634 319.322 150.64 315.796 150.64 311.957V249.561H166.417V312.359C166.417 319.411 164.679 325.659 161.203 331.104C157.728 336.46 153.063 340.656 147.21 343.691C141.356 346.636 134.817 348.109 127.592 348.109C120.458 348.109 113.964 346.636 108.111 343.691C102.257 340.656 97.5926 336.46 94.1171 331.104C90.7331 325.659 89.0411 319.411 89.0411 312.359V249.561H104.955V311.957Z" fill="white"/>
<path d="M194.981 347.038V246.08H195.118L248.897 320.393L242.038 318.92L295.542 246.08H295.816V347.038H279.902V281.295L281 289.329L244.919 339.138H244.644L207.74 289.329L210.484 281.964V347.038H194.981Z" fill="white"/>
<path d="M325.939 347.038V246.08H326.077L379.855 320.393L372.996 318.92L426.5 246.08H426.775V347.038H410.861V281.295L411.958 289.329L375.877 339.138H375.603L338.698 289.329L341.442 281.964V347.038H325.939Z" fill="white"/>
<path d="M456.898 249.561H472.949V347.038H456.898V249.561Z" fill="white"/>
<path d="M496.05 249.561H562.861V264.558H537.07V347.038H521.155V264.558H496.05V249.561Z" fill="white"/>
</svg>
